<svg width="167" height="28" fill="none" xmlns="http://www.w3.org/2000/svg"><path d="M153.431 0l3.046 9.523h9.859l-7.976 5.885 3.047 9.523-7.976-5.885-7.975 5.885 3.046-9.523-7.976-5.885h9.859L153.431 0zm-35.487 0l3.046 9.523h9.858l-7.975 5.885 3.046 9.523-7.975-5.885-7.976 5.885 3.047-9.523-7.976-5.885h9.858L117.944 0zM82.456 0l3.047 9.523h9.858l-7.975 5.885 3.046 9.523-7.976-5.885-7.975 5.885 3.046-9.523-7.975-5.885h9.858L82.456 0zm-33.4 0l3.046 9.523h9.859l-7.976 5.885 3.047 9.523-7.976-5.885-7.975 5.885 3.046-9.523-7.976-5.885h9.859L49.056 0zM13.569 0l3.046 9.523h9.858l-7.975 5.885 3.046 9.523-7.975-5.885-7.976 5.885 3.047-9.523L.664 9.523h9.858L13.57 0z" fill="#BDBEC2" fill-opacity=".7"/></svg>