<svg width="167" height="28" viewBox="0 0 167 28" fill="none" xmlns="http://www.w3.org/2000/svg">
<path d="M153.431 0L156.477 9.52282H166.336L158.36 15.4082L161.407 24.9311L153.431 19.0456L145.456 24.9311L148.502 15.4082L140.526 9.52282H150.385L153.431 0Z" fill="#BDBEC2" fill-opacity="0.7"/>
<path d="M117.944 0L120.99 9.52282H130.848L122.873 15.4082L125.919 24.9311L117.944 19.0456L109.968 24.9311L113.015 15.4082L105.039 9.52282H114.897L117.944 0Z" fill="#BDBEC2" fill-opacity="0.7"/>
<path d="M82.4564 0L85.5028 9.52282H95.3611L87.3856 15.4082L90.432 24.9311L82.4564 19.0456L74.4809 24.9311L77.5273 15.4082L69.5518 9.52282H79.4101L82.4564 0Z" fill="#BDBEC2" fill-opacity="0.7"/>
<path d="M49.0561 0L52.1024 9.52282H61.9607L53.9852 15.4082L57.0316 24.9311L49.0561 19.0456L41.0805 24.9311L44.1269 15.4082L36.1514 9.52282H46.0097L49.0561 0Z" fill="#BDBEC2" fill-opacity="0.7"/>
<path d="M13.5688 0L16.6151 9.52282H26.4734L18.4979 15.4082L21.5443 24.9311L13.5688 19.0456L5.59324 24.9311L8.63961 15.4082L0.664102 9.52282H10.5224L13.5688 0Z" fill="#BDBEC2" fill-opacity="0.7"/>
</svg>
